<svg width="2342" height="510" viewBox="0 0 2342 510" fill="none" xmlns="http://www.w3.org/2000/svg"><g clip-path="url(#a)"><path d="M2342 0H0v510h2342V0z" fill="#000"/><path d="M1328 374v-40h107v-7h9v6h4v-8.1l10 .5V339h25v-8h27v5h36v38h-218z" fill="#000D14"/><path opacity=".2" d="M2028 219.4V468h35V228.9l-35-9.5z" fill="#178FCF"/><path d="M1894 106v329.4l-18-18.4V106h18z" fill="#000D14"/><path d="M525 297h-89v141h89V297z" fill="#141414"/><path d="M1761 372.6l-44-7.1V282h44v90.6zM1981.7 468c.8-1-.3-165.9-.3-165.9l11.6-14.2V468h-11.3z" fill="#000D14"/><path opacity=".1" d="M2259 376h-106v91h106v-91z" fill="#178FCF"/><path d="M222 411h-78v27h78v-27z" fill="#000D14"/><path d="M367.7 146.3l2.3 299.1 19-23V206.6l-21.3-60.3z" fill="#1E1E1E"/><path d="M318 393h-51v-66.2l51 33.5V393z" fill="#131313"/><path d="M1095 338.4V273h-15l.5-92h42.5v-60h20v-13h25V97h44v14h7V93h43v15h36v19.5l19.1-14.5h37.4l-.5 42h19v17h23v21h9.5l-.5 9h27v43h-43v25h-40v69h-23v36h-231v-36.6z" fill="#000D14"/><g opacity=".5"><path fill-rule="evenodd" clip-rule="evenodd" d="M892 269.5h131.5v-91h-6V151l-7 7.2v-37.7h37v19h10v9h18v17h12V390l-46.8-26.1" fill="#000D14"/><path d="M892 269.5h131.5v-91h-6V151l-7 7.2v-37.7h37v19h10v9h18v17h12V390l-46.8-26.1" stroke="#fff" stroke-miterlimit="10"/></g><g opacity=".5"><path fill-rule="evenodd" clip-rule="evenodd" d="M786.2 89.6l49.3 8.6-.8 248.3" fill="#000D14"/><path d="M786.2 89.6l49.3 8.6-.8 248.3" stroke="#fff" stroke-miterlimit="10"/></g><path d="M1430 222h181v-70.6l51-9.8V268h-103v7h-41v-13h-24v-14h-64v-26z" fill="#000D14"/><path d="M1589 93.4V226h73v-83.6l-11 1.4v-41.4l-62-9z" fill="#000D14"/><g opacity=".2"><path d="M647 437.5h-92.5v-138h79v-14h14V367" fill="#00121E"/><path d="M647 437.5h-92.5v-138h79v-14h14V367" stroke="#fff" stroke-miterlimit="10"/></g><path d="M1650.5 144v-41.9l-61.6-8.3-80.4 8.3V222" stroke="#fff" stroke-miterlimit="10"/><path opacity=".5" d="M1722.5 280V150.6l-61-8.7-51 9.7v69.9h-179v-23h-27v-10h-10v-19h-22v-17h-19v-41h-37.4l-19.6 15.1v-19.1h-35v-14h-43v17h-7v-13h-44v10h-25v13h-20v58h-44v91H1031M834.6 377.6l.2-114.4 5.7-18.7" stroke="#fff" stroke-miterlimit="10" stroke-linecap="round"/><path d="M745.5 377.5h-59V235.1l34.1-8.6h24.9v151z" stroke="#fff" stroke-miterlimit="10"/><path opacity=".4" d="M720.5 227.1l-34 8v143.2l34-.4V227.1z" fill="#474747" stroke="#fff" stroke-miterlimit="10"/><path d="M786.5 90v266" stroke="#fff" stroke-miterlimit="10"/><path d="M554.8 299.2l-17.3 3.8v134.5H555c0-1-.2-138.3-.2-138.3z" fill="#1C1C1C" stroke="#00121E" stroke-miterlimit="10"/><g opacity=".3"><path opacity=".3" d="M934 371V227h8v-44h8v-12h7v-9h5.3l-.4-19.2 47.1-7.1V155h14v22.8l7-.6V363" fill="#223C49"/><path opacity=".33" d="M934 371V227h8v-44h8v-12h7v-9h5.3l-.4-19.2 47.1-7.1V155h14v22.8l7-.6V363" fill="#55A4DB"/><path opacity=".3" d="M934.5 371V227.5h7v-44h9v-13h6v-8h5.8l-.1-19.4 47.3-7.4v18.8h13v23.3l8-.6V363" stroke="#fff" stroke-miterlimit="10"/></g><path opacity=".33" d="M934 371V227h8v-44h8v-12h7v-9h5.3l-.4-19.2 47.1-7.1V155h14v22.8l7-.6V363" fill="#949494"/><path d="M1541 376v-40h-36v-6h-27v9h-25v-15h-10v8h-4v-6h-9v7h-107v40" fill="#000D14"/><path opacity=".51" d="M1221 422.5l1.3 5.2" stroke="#00121E" stroke-width="1.249" stroke-miterlimit="10" stroke-linecap="round" stroke-linejoin="round"/><path opacity=".5" d="M745.5 99.1l41-10v291.3l-41 .1V99.1z" fill="#000D14" stroke="#fff" stroke-miterlimit="10"/><path opacity=".4" d="M1009.5 120.7l-15 3.1v13.6l15.1-2.5-.1-14.2z" fill="#126FA1" stroke="#fff" stroke-miterlimit="10"/><path d="M559.3 381.6l-7.3.2v-4.2l5.4-1 1.9 5z" fill="#00121E"/><path d="M504 432H-2v13h506v-13z" fill="#000D14"/><g opacity=".5"><path d="M-2 475h2345.5v-42h-37v-91h-48v39h-105V279h-66v40h-24v-85.6l-34.4-9.5-35.6 9.5v60l-11 10.9V83h-18V66h-21.6l-48.4 10.3V111h-20v147h-72v60h-40v-31h-47v37h-175v-43.1l-22.8-.5.4-12.5-23.6.5V254h-64v-9h-41.7l.5 23.7-38.5.4-2 105.9h-50.3V272h-107v73h-125v20.4l-175 11.3V250h-51v102h-142v-80h-47v92h-125v-63h-92v42h-44V210.3L367.7 151h-49.2v182h-51v-54h-46v136h-77v-82h-61v100H-2" fill="#1C272D"/><path d="M-2 475h2345.5v-42h-37v-91h-48v39h-105V279h-66v40h-24v-85.6l-34.4-9.5-35.6 9.5v60l-11 10.9V83h-18V66h-21.6l-48.4 10.3V111h-20v147h-72v60h-40v-31h-47v37h-175v-43.1l-22.8-.5.4-12.5-23.6.5V254h-64v-9h-41.7l.5 23.7-38.5.4-2 105.9h-50.3V272h-107v73h-125v20.4l-175 11.3V250h-51v102h-142v-80h-47v92h-125v-63h-92v42h-44V210.3L367.7 151h-49.2v182h-51v-54h-46v136h-77v-82h-61v100H-2" stroke="#F6F6F6" stroke-miterlimit="10"/></g></g><defs><clipPath id="a"><path fill="#fff" d="M0 0h2342v510H0z"/></clipPath></defs></svg>