<svg width="2342" height="510" viewBox="0 0 2342 510" fill="none" xmlns="http://www.w3.org/2000/svg"><g clip-path="url(#a)"><mask id="c" maskUnits="userSpaceOnUse" x="0" y="0" width="2342" height="511"><path d="M2342 .1H0v510h2342V.1z" fill="url(#b)"/></mask><g mask="url(#c)"><path d="M1328 372.7v-40h107v-7h9v6h4v-8.1l10 .5v13.6h25v-8h27v5h36v38h-218z" fill="#353535"/><path opacity=".5" d="M2306.5 427.2v-92h-48v39h-105v-102h-66v40h-24v-85.6l-34.4-9.5-35.6 9.5v60l-11 10.9V76.2h-18v-17h-22l-48 10.3v34.7h-20v147h-72v60h-40v-31h-47v37h-175v-43.1l-23-.5.5-12.5-23.5.5v-14.4h-64v-9h-42l.5 23.7-38.5.4-2 105.9h-50v-103h-107v73h-125v20.4l-175 11.3V243.2h-51v102h-142v-80h-47v92h-125v-63h-92v42h-44V203.5l-22.9-59.3h-49.1v182h-51v-54h-46v136h-77v-82h-61v100h-85v42h2345v-41h-37z" fill="#121212" stroke="#F6F6F6" stroke-miterlimit="10"/><path d="M2028 218.1v248.6h35V227.6l-35-9.5z" fill="#2B2B2B"/><path d="M1894 104.7v329.4l-18-18.4v-311h18zM525 295.7h-89v141h89v-141z" fill="#353535"/><path d="M1560 266.1v108.6h50l33.5-17.1 19.5 2-1-92.6-102-.9z" fill="#2C2C2C"/><path d="M796 447.1v-40l249-25.2v30.2l-249 35z" fill="#353535"/><path d="M1876 253.7h-71v212h71v-212z" fill="#2C2C2C"/><path d="M1761 371.3l-44-7.1v-83.5h44v90.6zM1981.7 466.7c.8-1-.3-165.9-.3-165.9l11.6-14.2v180.1h-11.3z" fill="#353535"/><path d="M2262 374.7h-109v90h109v-90z" fill="#2B2B2B"/><path d="M222 409.7h-78v27h78v-27z" fill="#353535"/><path d="M367.7 145l2.3 299.1 19-23V205.3L367.7 145zM318 391.7h-51v-66.2l51 33.5v32.7z" fill="#323232"/><path d="M1095 327.1v-62.4h-15l.5-89h42.5v-57h20v-13h25v-10h44v13h7v-17h43v14h36v19.1l19.1-14.1h37.4l-.5 40h19v17h23v20h9.5l-.5 9h27v41h-43v24h-40v66h-23v34h-231v-34.6z" fill="#353535"/><path d="M720.5 324.7v-96.5h22v147-39h44l-.2-248.9 49.3 9.6v241.3h57v-70h131v-91h-6v-27.5l-7 7.2v-37.7h37v19h10v9h18v17h12v224.5l-46.5-26.1-282.7 15.8s-24.7-3.2-37.7-1.8l-.2-51.9z" fill="#353535" stroke="#fff" stroke-miterlimit="10"/><path d="M1430 220.7h181v-70.6l51-9.8v126.4h-103v7h-41v-13h-24v-14h-64v-26z" fill="#353535"/><path d="M1589 92.1v132.6h73v-83.6l-11 1.4v-41.4l-62-9z" fill="#353535"/><path d="M627 43.2h-6.5v-1.8c0-.9-.4-1.2-.4-1.2h-1.5L617.1 13l-1.5 27.2h-1.5s-1.7.3-1.7 1.2v1.8h-5.3s-1.7.9-1.7 2.1v1.9s11-.6 22 0v-1.9c0-1.2-.4-2.1-.4-2.1z" fill="#353535" stroke="#fff" stroke-miterlimit="10"/><path d="M618.5 59.7c20.1 0 35.5 2.9 35.5 2.9s-16.8-5.5-20.3-7c-4.6-1.9-5.6-4.3-5.6-4.3l4.6-3.9c-.9-1.7-15.1-1.7-15.1-1.7h-1.5s-14.2 0-15.1 1.7l4.6 3.8s-.8 2.4-5.6 4.3c-3.6 1.4-20.3 7-20.3 7s15.3-2.8 35.3-2.8h3.5z" fill="#F4F0E2"/><path d="M653.9 62.8c-.2 0-15.6-3.1-35.4-3.1H615c-19.8 0-35.2 3.1-35.4 3.1l-.2-.8c.2-.1 16.8-5.5 20.3-6.9 3.6-1.4 4.8-3 5.2-3.7l-4.6-3.8.2-.2c.8-1.6 8.7-1.7 15.2-1.7h2c6.5 0 14.4.2 15.2 1.7l.2.3-4.6 3.7c.4.7 1.8 2.3 5.2 3.7 3.5 1.4 20.1 6.8 20.3 6.8l-.1.9z" fill="#353535"/><path d="M617.8 45.7c2 0 14 .2 14.8 1.7l-4.6 3.8s1 2.4 5.6 4.3c3.6 1.5 20.3 7 20.3 7s-15.3-2.8-35.4-2.8H615c-20.1 0-35.5 2.9-35.5 2.9s16.7-5.6 20.3-7c4.8-1.9 5.6-4.3 5.6-4.3l-4.6-3.9c.8-1.6 12.8-1.7 14.8-1.7h2.2zm0-1h-2c-14.5 0-15.4 1.7-15.7 2.3l-.4.8.6.5 3.9 3.2c-.5.7-1.8 2-4.7 3.1-3.5 1.4-20.1 6.9-20.3 7l.5 1.9c.2 0 15.5-2.8 35.3-2.8h3.5c19.7 0 35.1 2.8 35.3 2.8l.5-1.9c-.2-.1-16.8-5.5-20.3-7-2.7-1.1-4.1-2.4-4.7-3.2l3.9-3.2.6-.5-.4-.8c-.2-.5-1-2.2-15.6-2.2z" fill="#fff"/><path d="M572 69.7c11.8-1.4 25.7-2.2 40.7-2.2 19.1 0 36.7 1.3 50.2 3.5 0 0-2.9-1.5-4-2.1-1.1-.6-5.1-2-5.1-2l.7-4c-10.8-1.8-23.5-2.9-37-2.9-13.7 0-26.5 1.1-37.3 2.9l.6 3.5c-.1.1-5.7 1.5-8.8 3.3z" fill="#1F1F1F"/><path d="M648.3 80.326c-18.6-2-19.5-3.2-31.8-3.2-12.7-.1-13.3 1.1-31.2 2l-2.3-7c4.6-.3 18.9-1.3 33.5-1.1 13.3.1 26.8 1.1 33.5 1.6l-1.7 7.7z" fill="#1C1C1C"/><path d="M636.4 84.9c-5.6-.9-12.6-1.5-20.3-1.5-6 0-11.7.3-16.6.9" stroke="#313131" stroke-width=".5" stroke-miterlimit="10"/><path d="M597.4 60.9l.5 4.4c1.6-.1 3.2-.1 4.9-.2l-.3-4.5-5.1.3zM607.5 60.3l.2 4.6c1.6 0 3.2-.1 4.9-.1l-.1-4.6c-1.6.1-3.3.1-5 .1z" fill="#2C2C2C" stroke="#F4F0E2" stroke-width=".5" stroke-miterlimit="10"/><path d="M602.4 60.6l.3 4.5c1.6-.1 3.2-.1 4.9-.2l-.2-4.6c-1.6.1-3.3.2-5 .3zM587.3 61.9l.7 3.9c1.5-.1 3.1-.2 4.9-.3l-.6-4.2c-1.6.2-3.3.4-5 .6z" fill="#2C2C2C" stroke="#F4F0E2" stroke-width=".5" stroke-miterlimit="10"/><path d="M592.3 61.3l.6 4.2c1.5-.1 3.2-.2 4.9-.2l-.5-4.4c-1.6.1-3.3.3-5 .4zM579.7 62.9l.6 3.5s1-.1 2.8-.2l-.8-3.6c-.9.1-1.8.2-2.6.3zM582.3 62.5l.8 3.6c1.3-.1 2.9-.2 4.9-.4l-.7-3.9c-1.7.3-3.3.5-5 .7z" fill="#2C2C2C" stroke="#F4F0E2" stroke-width=".5" stroke-miterlimit="10"/><path d="M612.5 60.2l.1 4.6h4.9v-4.6h-5zM617.5 60.2v4.6h6.2l.1-4.5c-2 0-4.3-.1-6.3-.1z" fill="#2C2C2C" stroke="#F4F0E2" stroke-miterlimit="10"/><path d="M654 62.9s-1.8-.3-5.1-.7l-.7 4c1.7.2 3.5.4 5.1.7l.7-4zM638.9 61.1l-.5 4.2c1.6.1 3.3.2 4.9.4l.6-4.1c-1.5-.2-3.2-.3-5-.5z" fill="#2C2C2C" stroke="#F4F0E2" stroke-width=".5" stroke-miterlimit="10"/><path d="M643.9 61.6l-.6 4.1c1.6.1 3.3.3 4.9.5l.7-4c-1.4-.2-3.1-.4-5-.6zM633.8 60.8l-.3 4.3c1.6.1 3.3.2 4.9.3l.5-4.2c-1.6-.2-3.3-.3-5.1-.4zM623.8 60.3l-.1 4.5c1.6 0 3.3.1 4.9.1l.2-4.4c-1.6-.1-3.3-.1-5-.2z" fill="#2C2C2C" stroke="#F4F0E2" stroke-width=".5" stroke-miterlimit="10"/><path d="M628.8 60.5l-.2 4.4c1.6 0 3.3.1 4.9.2l.3-4.3c-1.6-.1-3.2-.2-5-.3z" fill="#2C2C2C" stroke="#F4F0E2" stroke-width=".5" stroke-miterlimit="10"/><path d="M612.5 83.3c-1-2-1.8-4.7-2.1-6-1.4 0-2.8.1-4.2.1.6 1.3 1.9 4 3.6 5.9.9.1 1.8 0 2.7 0z" fill="#353535" stroke="#fff" stroke-width=".5" stroke-miterlimit="10"/><path d="M606.9 83.5c.9-.1 1.9-.1 2.9-.1-1.6-1.9-3-4.6-3.6-5.9-1.6.1-3.1.1-4.6.2.5.8 2.6 3.8 5.3 5.8zM615.4 83.3c-.3-2-.6-4.7-.7-5.9h-4.3c.3 1.2 1.1 4 2.1 6 1-.1 1.9-.1 2.9-.1zM604.3 83.7c-3.3-1.9-5.9-4.7-6.9-5.8-1.3.1-2.7.2-3.9.3 1.4 1.3 4.6 3.9 8.5 5.7.8-.1 1.5-.1 2.3-.2z" fill="#353535" stroke="#fff" stroke-width=".5" stroke-miterlimit="10"/><path d="M602 83.9c-3.9-1.7-7.1-4.4-8.5-5.7-1.6.1-3.1.3-4.6.5 1.5 1 5.6 3.8 10.8 5.4.7 0 1.5-.1 2.3-.2zM604.3 83.7c.8-.1 1.7-.1 2.5-.2-2.7-2.1-4.8-5.1-5.3-5.9-1.4.1-2.8.2-4.1.3 1 1.1 3.7 3.9 6.9 5.8zM615.6 83.3h2.6c.3-2 .6-4.7.7-5.9h-4.3c.1 1.2.4 3.9.7 5.9h.3zM633.4 84.4c5.2-1.5 9.5-4 11.2-5l-4.2-.6c-1.3 1.1-4.8 3.7-9 5.3.7.1 1.4.2 2 .3z" fill="#353535" stroke="#fff" stroke-width=".5" stroke-miterlimit="10"/><path d="M628.9 83.9c.8.1 1.7.2 2.5.3 4.2-1.7 7.6-4.3 9-5.3-1.5-.2-3-.3-4.6-.5-1.3 1.2-3.8 3.8-6.9 5.5zM621.1 83.4c1-1.9 1.8-4.6 2.1-5.9-1.4-.1-2.8-.1-4.2-.1-.1 1.2-.4 3.9-.7 5.9.9 0 1.8 0 2.8.1zM635.2 84.7c7.5-1.5 13.6-4.1 14.4-4.5-1.6-.3-3.3-.6-5-.8-1.7 1-6 3.5-11.2 5l1.8.3zM580.2 80s3.9 2.7 16.8 4.3c-5.6-1.6-10.1-4-12-5-1.6.1-3.2.4-4.8.7z" fill="#353535" stroke="#fff" stroke-width=".5" stroke-miterlimit="10"/><path d="M598.6 84.3c.3 0 .7-.1 1-.1-5.1-1.7-9.3-4.4-10.8-5.4-1.3.1-2.5.3-3.8.5 1.8 1 6.3 3.5 12 5 1.3.2 2.7.3 4.2.4-.6-.2-1.1-.3-1.6-.5-.3 0-.7.1-1 .1zM623.8 83.5c1.6-1.9 2.9-4.4 3.6-5.8-1.4-.1-2.8-.1-4.2-.2-.4 1.3-1.2 4-2.1 5.9.9 0 1.8.1 2.7.1zM626.5 83.7c.8.1 1.6.1 2.4.2 3.1-1.7 5.6-4.2 6.8-5.6-1.3-.1-2.6-.2-4-.3-.7 1.1-2.7 3.8-5.2 5.7z" fill="#353535" stroke="#fff" stroke-width=".5" stroke-miterlimit="10"/><path d="M626.5 83.7c2.5-1.9 4.5-4.6 5.3-5.7-1.5-.1-2.9-.2-4.5-.3-.6 1.4-2 4-3.6 5.8 1 .1 1.9.1 2.8.2zM604.3 83.7c1 .6 2 1.1 3.1 1.4.8 0 1.6.1 2.4.1-1-.4-2-1-2.9-1.7-.9.1-1.7.1-2.6.2zM631.4 84.2c-1.1.4-2.3.8-3.6 1.1.9 0 1.8-.1 2.6-.1 1-.2 2-.4 2.9-.7-.5-.2-1.2-.3-1.9-.3z" fill="#353535" stroke="#fff" stroke-width=".5" stroke-miterlimit="10"/><path d="M628.9 83.9c-1.1.6-2.3 1.1-3.4 1.4.8 0 1.6 0 2.3-.1 1.2-.3 2.4-.6 3.6-1.1-.8 0-1.6-.1-2.5-.2z" fill="#353535" stroke="#fff" stroke-width=".5" stroke-miterlimit="10"/><path d="M626.5 83.7c-1 .7-2 1.3-3.1 1.7h2.1c1.2-.3 2.4-.8 3.4-1.4-.7-.2-1.5-.3-2.4-.3z" fill="#353535" stroke="#fff" stroke-width=".5" stroke-miterlimit="10"/><path d="M623.8 83.5c-.7.8-1.5 1.5-2.3 1.9h2c1.1-.3 2.1-.9 3.1-1.7-1-.1-1.9-.1-2.8-.2zM652.8 80.8c-1-.2-2.1-.4-3.2-.6-.9.4-6.9 3-14.4 4.5.2 0 .4.1.6.1 14.7-1.3 17-4 17-4z" fill="#353535" stroke="#fff" stroke-width=".5" stroke-miterlimit="10"/><path d="M633.9 84.9c.6 0 1.3-.1 1.9-.1-.2 0-.4-.1-.6-.1-.4.1-.9.1-1.3.2zM599.6 84.2c.5.2 1.1.3 1.6.5 1.1.1 2.3.2 3.5.3-.9-.3-1.9-.6-2.7-1-.8 0-1.6.1-2.4.2z" fill="#353535" stroke="#fff" stroke-width=".5" stroke-miterlimit="10"/><path d="M633.4 84.4c-.9.3-1.9.5-2.9.7 1.2-.1 2.3-.1 3.4-.2.4-.1.9-.2 1.3-.2l-1.8-.3zM623.8 83.5c-.9 0-1.8-.1-2.7-.1-.5.9-.9 1.6-1.5 2h1.9c.8-.4 1.6-1.1 2.3-1.9zM609.7 83.4c-1 0-1.9.1-2.9.1.9.7 1.9 1.3 2.9 1.7.7 0 1.4.1 2.2.1-.7-.4-1.5-1.1-2.2-1.9zM602 83.9c.9.4 1.8.8 2.7 1 .9.1 1.7.1 2.7.2-1.1-.3-2.1-.8-3.1-1.4-.8.1-1.5.1-2.3.2z" fill="#353535" stroke="#fff" stroke-width=".5" stroke-miterlimit="10"/><path d="M612.5 83.3c-.9 0-1.9 0-2.8.1.7.8 1.4 1.5 2.2 1.9h2c-.4-.4-.9-1.1-1.4-2zM621.1 83.4c-.9 0-1.9-.1-2.8-.1-.2.9-.3 1.7-.5 2.1h1.9c.4-.4.9-1.1 1.4-2z" fill="#353535" stroke="#fff" stroke-width=".5" stroke-miterlimit="10"/><path d="M612.5 83.3c.4.9.9 1.6 1.4 2h1.9c-.2-.4-.3-1.2-.5-2.1-.9.1-1.8.1-2.8.1zM615.6 83.3h-.2c.2.9.3 1.7.5 2.1h1.9c.2-.4.3-1.2.5-2.1h-2.7zM601.7 67.9l1.9 3.1c1.6 0 3.2-.1 4.9-.1l-1.2-3.1c-2 0-3.8 0-5.6.1z" fill="#353535" stroke="#fff" stroke-width=".5" stroke-miterlimit="10"/><path d="M607.2 67.8l1.2 3.1h4.8l-.6-3.1c-1.8-.1-3.7-.1-5.4 0zM596.2 68.1l2.5 3c1.6-.1 3.2-.1 4.9-.2l-1.9-3.1c-1.9.1-3.7.2-5.5.3zM580 69.2l3.9 2.7c1.3-.1 2.9-.2 4.9-.3l-3.5-2.9c-1.8.2-3.5.3-5.3.5z" fill="#353535" stroke="#fff" stroke-width=".5" stroke-miterlimit="10"/><path d="M572.4 69.9s6.4 2.2 10.3 2c.4 0 .8 0 1.2-.1l-3.9-2.7c-2.5.3-5.1.6-7.6.8zM590.7 68.4l3 3c1.5-.1 3.2-.1 4.9-.2l-2.5-3c-1.8 0-3.6.1-5.4.2z" fill="#353535" stroke="#fff" stroke-width=".5" stroke-miterlimit="10"/><path d="M618.5 67.8v3-3H612.6l.6 3.1h3.1c2.4 0 4.8.1 7.1.1l.6-3.1c-1.8-.1-3.5-.1-5.5-.1z" fill="#353535"/><path d="M618.5 67.8v3-3zm0 0H612.6l.6 3.1h3.1c2.4 0 4.8.1 7.1.1l.6-3.1c-1.8-.1-3.5-.1-5.5-.1z" stroke="#fff" stroke-miterlimit="10"/><path d="M585.3 68.7l3.5 2.9c1.5-.1 3.1-.2 4.9-.3l-3-3c-1.8.2-3.6.3-5.4.4zM651.7 69.6l-3.3 2.7c1.4.1 2.6.2 3.5.3h1.7l3.4-2.4c-1.7-.2-3.5-.4-5.3-.6z" fill="#353535" stroke="#fff" stroke-width=".5" stroke-miterlimit="10"/><path d="M646.2 69.1l-2.9 2.9c1.9.1 3.6.3 5.1.4l3.3-2.7c-1.8-.3-3.6-.5-5.5-.6zM663.7 71.1c-2.2-.3-4.4-.6-6.7-.9l-3.4 2.4c1.9 0 5.3-.2 8.9-.9l1.2-.6z" fill="#353535" stroke="#fff" stroke-width=".5" stroke-miterlimit="10"/><path d="M640.7 68.6l-2.3 3c1.8.1 3.5.2 5.1.3l2.9-2.9c-2-.1-3.9-.2-5.7-.4zM629.5 68l-1.2 3.1c1.7.1 3.4.1 5 .2l1.8-3c-1.9-.1-3.7-.2-5.6-.3zM635.1 68.3l-1.8 3c1.7.1 3.4.2 5 .3l2.3-3c-1.8-.1-3.6-.2-5.5-.3z" fill="#353535" stroke="#fff" stroke-width=".5" stroke-miterlimit="10"/><path d="M624 67.9l-.6 3.1c1.7 0 3.3.1 4.9.2l1.2-3.1c-1.8-.1-3.7-.2-5.5-.2z" fill="#353535" stroke="#fff" stroke-width=".5" stroke-miterlimit="10"/><path d="M630.3 248.8l-5.4-66.6s-1.7-20.3-1.7-30.5 1.2-25.2 2-31c.8-5.8 5.5-35.2 5.5-35.2l-1.9.3-7.2 44.7c0-2.6.1-4.1.2-5.1.6-4.8 5.1-38.8 5.1-38.8h-1.6l-4.6 32.5s-.9 4.7-3 4.7-2.6-9.2-2.6-9.2l-1.9-28.8-2-.1 2.3 36.3s.2 22.8 0 31.4c-.1 3.9.3 35.3.8 68.3h-9.8c1.4-12 5.8-50.5 5.8-56.7 0-7.4-.8-43.7-1.6-51.9-.8-8.2-2.5-27.2-2.5-27.2l-5.5-.4s7.3 45.5 7.3 50.7c0 5.2 1.1 19.4-1.1 42.3-.7 7.7-16.2 125.1-16.2 125.1h4.5l8.9-78h10.3c.5 39 1.2 79 1.2 79h2.2l-.1-16h5.4l.6 16h2.6l-.5-16h4.3v-1.1l2 13.1h2.5l-4.3-51.8zm-13.6-57.7c0-3.8 0-13 1.4-15.4 0 0 1.5 3.5 1.6 9 .1 5.4 1 36.1 1 36.1v.9H617c-.1-13-.3-28.5-.3-30.6zm.4 34.6h3.7l.5 13h-4c0-2-.1-7-.2-13zm.3 16h4.1l.5 13h-4.5l-.1-13zm-1.4 44v-.7l1.5-28.3h4.5l1 29h-7zm7.5-64c-.4-10-1.5-38.9-1.7-48.6l2.9 36.1 1 12.5h-2.2zm.1 4h2.3l1.1 13h-3l-.4-13zm2 60l-.9-29h2.3v-2h-2.4l-.4-13h3.1l1.1 13 2.5 31h-5.3z" fill="#353535" stroke="#fff" stroke-width="2" stroke-miterlimit="10"/><path d="M629.8 249.6l-5.4-66.8s-1.7-20.4-1.7-30.5c0-10.1 1.2-25.2 2-31 .8-5.8 5.5-35.3 5.5-35.3l-1.9.3-7.2 44.7c0-2.6.1-3.9.2-4.8.6-4.8 5.1-38.5 5.1-38.5h-1.6l-4.6 32.3s-.9 4.5-3 4.5-2.6-9.3-2.6-9.3l-1.9-28.8-2-.2 2.3 36.3s.2 23 0 31.7c-.1 3.9.3 35.5.8 68.5H604c1.4-12 5.8-50.8 5.8-57 0-7.4-.8-43.8-1.6-52-.8-8.2-2.5-27.2-2.5-27.2l-5.5-.4s7.3 45.5 7.3 50.7c0 5.2 1.1 19.6-1.1 42.6-.7 7.7-16.2 125.4-16.2 125.4h4.5l8.9-78h10.3c.5 39 1.2 79 1.2 79h2.2l-.1-16h5.4l.6 16h2.6l-.5-15.8 4.6-.1 1.8 11.9h2.5l-4.4-52.2zm-13.6-57.8c0-3.8 0-13.1 1.4-15.5 0 0 1.5 3.5 1.6 8.9.1 5.4 1 36.3 1 36.3v1.2h-3.7c-.1-13-.3-28.8-.3-30.9zm.4 34.9h3.7l.5 13h-4c0-2-.1-7-.2-13zm.3 16h4.1l.5 13H617l-.1-13zm.3 15.4l4.2-.1 1 29-5.6-.3.4-28.6zm5.8-35.4c-.4-10-1.5-39.1-1.7-48.8l2.9 36.2 1 12.6H623zm.1 4h2.3l1.1 13h-3l-.4-13zm2 60l-.9-29h4.8v-2h-4.9l-.4-13h3.1l1.1 13 2.5 31h-5.3z" fill="#353535"/><path d="M647 436.2h-92.5v-138h79v-14h14v81.5" fill="#2D2D2D"/><path d="M647 436.2h-92.5v-138h79v-14h14v81.5M1650.5 142.7v-41.9l-61.6-8.3-80.4 8.3v119.9" stroke="#fff" stroke-miterlimit="10"/><path d="M835.7 376.3l.2-114.4 6.4-19.7h50.9l.3 25h186v-90h44v-58h20v-13h25v-10h44v13h7v-17h43v14h35v19.1l19.6-15.1h37.4v41h19v17h22v19h10v10h27v23h179v-69.9l51-9.7 61 8.7v129.4" stroke="#fff" stroke-miterlimit="10" stroke-linecap="round"/><path d="M745.5 376.2h-59V233.8l34.1-8.6h24.9v151z" stroke="#fff" stroke-miterlimit="10"/><path d="M720.5 225.8l-34 8V377l34-.4V225.8z" fill="#4B4B4B" stroke="#fff" stroke-miterlimit="10"/><path d="M786.5 88.7v266" stroke="#fff" stroke-miterlimit="10"/><path d="M554.8 297.9l-17.3 3.8v134.5H555c0-1-.2-138.3-.2-138.3z" fill="#2C2C2C" stroke="#2D2D2D" stroke-miterlimit="10"/><path d="M554.8 297.9l-17.3 3.8v134.5H555c0-1-.2-138.3-.2-138.3z" fill="#2B2B2B" stroke="#2D2D2D" stroke-miterlimit="10"/><path d="M562.5 436.2h-37v-50.5l21.2-4.5h15.8v55z" stroke="#fff" stroke-miterlimit="10"/><path d="M546.5 381.1l-21 4.6v50.5h21v-55.1z" fill="#4B4B4B" stroke="#fff" stroke-miterlimit="10"/><path opacity=".51" d="M521.5 391.9l-17 3.6v40.7h17v-44.3z" fill="#4B4B4B" stroke="#fff" stroke-miterlimit="10"/><path d="M647 436.2h-95.5v-60.3l24.6-5.7h70.4v5.5" stroke="#fff" stroke-miterlimit="10"/><path d="M667.5 376.2v.1l.6-.1h-1.6v.2l-41 3.3v9.5l-22 1.6v9.5l-13 1.1v34.2l56.5 2 68.3-8.9.2-.6v-51.9h-48z" stroke="#fff" stroke-miterlimit="10"/><path d="M667 376.2h48.5v51.4l-68.4 10-26.6-.8v-36.1" stroke="#fff" stroke-miterlimit="10"/><path opacity=".51" d="M647.5 378.7l20.6-1.7v9.7l-41.2 3v-9.4l20.6-1.6z" fill="#343434" fill-opacity=".33" stroke="#fff" stroke-width="1.249" stroke-miterlimit="10"/><path d="M646.9 388.3v9.1l-43.2 3.6-.2-10.2 43.4-2.5zM620.7 399.6v37.3h-28.8V402l28.8-2.4z" fill="#343434" fill-opacity=".33" stroke="#fff" stroke-width="1.249" stroke-miterlimit="10"/><path d="M1050.5 379.2v36.3l-260 35.2v-47.5l260-24z" fill="#353535" stroke="#fff" stroke-miterlimit="10"/><path d="M1050.5 372.5v6.7l-257.9 25h-10.1v-9.7l268-22z" fill="#353535" stroke="#fff" stroke-miterlimit="10"/><path d="M1042.8 365.6l10 7.3-268.5 22.3h-13.1c0-7-8.8-14.1-15.6-14.1l287.2-15.5z" fill="#353535" stroke="#fff" stroke-miterlimit="10"/><path d="M792 403.7H688v47h104v-47z" fill="#353535"/><path opacity=".33" d="M792 403.7H688v47h104v-47z" fill="#4B4B4B"/><path d="M791.5 403.2h-103v47h103v-47z" stroke="#fff" stroke-miterlimit="10"/><path d="M784 394.7h-88v9h88v-9z" fill="#353535"/><path opacity=".33" d="M784 394.7h-88v9h88v-9z" fill="#4B4B4B"/><path d="M784.5 394.2h-89v9h89v-9z" stroke="#fff" stroke-miterlimit="10"/><path d="M771.2 394.7h-53.7c0-9 12-15.3 26.9-15.3 14.9 0 26.8 6.3 26.8 15.3z" fill="#353535"/><path opacity=".33" d="M771.2 394.7h-53.7c0-9 12-15.3 26.9-15.3 14.9 0 26.8 6.3 26.8 15.3z" fill="#4B4B4B"/><path d="M771.2 394.2h-53.7c0-8 12-15.3 26.9-15.3 14.9 0 26.8 7.3 26.8 15.3z" stroke="#fff" stroke-miterlimit="10"/><path d="M744.3 391.4c1.767 0 3.2-1.925 3.2-4.3s-1.433-4.3-3.2-4.3c-1.767 0-3.2 1.925-3.2 4.3s1.433 4.3 3.2 4.3z" fill="#353535" stroke="#fff" stroke-miterlimit="10"/><path d="M934 369.7v-144h8v-44h8v-12h7v-9h5.3l-.4-19.2 47.1-7.1v19.3h14v22.8l7-.6v185.8" fill="#2B2B2B"/><path opacity=".33" d="M934 369.7v-144h8v-44h8v-12h7v-9h5.3l-.4-19.2 47.1-7.1v19.3h14v22.8l7-.6v185.8" fill="#4B4B4B"/><path d="M934.5 369.7V226.2h7v-44h9v-13h6v-8h5.8l-.1-19.4 47.3-7.4v18.8h13v23.3l8-.6v185.8" stroke="#fff" stroke-miterlimit="10"/><path opacity=".33" d="M934 369.7v-144h8v-44h8v-12h7v-9h5.3l-.4-19.2 47.1-7.1v19.3h14v22.8l7-.6v185.8" fill="#4B4B4B"/><path d="M1546 373.7v-39h-36v-5h-27v8h-25v-14h-10v8h-4v-6h-9v7h-107v38" fill="#353535"/><path d="M1546.5 389.7v-55.5h-36v-5h-27v8h-25v-14h-10v8h-4v-6h-9v7h-107v38.5" stroke="#fff" stroke-miterlimit="10"/><path d="M1652.5 373.2h-337l-9 17h346v-17zM1652.5 390.2h-346v34h346v-34zM1621.5 424.2h-282v41h282v-41z" stroke="#fff" stroke-miterlimit="10"/><path d="M1677.7 371.1l158.7 18v10l-158.3-12.7v-12.6" fill="#353535"/><path d="M1836.4 389.1l-159-17-32.6-15 178.7 20.5-177.2-19.8 31.4 13.3 158.7 18zM1836.5 399.1L1677 386.3v-15.6h1v14.5l158.5 13.9z" fill="#fff"/><path d="M1678.5 386.4l158.9 12.7 14 12.6-122.4-1.6-50.5-23.7z" fill="#353535"/><path d="M1826.5 411.9l-98.5-2 1.3-1.2 117.7 3-20.5.2z" fill="#fff"/><path d="M1619.5 398.2h-274.4l-7.5 26h281.9v-26zM1662 266.2h-102.5v7h-42v-12h-23v-14h-64v-9h-42v24h-38v70.5M1662.5 358.7v-92" stroke="#fff" stroke-miterlimit="10"/><path d="M1176.5 287.8c22.64 0 41-18.356 41-41s-18.36-41-41-41-41 18.356-41 41 18.36 41 41 41z" stroke="#fff" stroke-width=".625" stroke-miterlimit="10"/><path d="M1176.5 329.2c45.51 0 82.4-36.892 82.4-82.4s-36.89-82.4-82.4-82.4c-45.51 0-82.4 36.892-82.4 82.4s36.89 82.4 82.4 82.4z" stroke="#fff" stroke-width=".625" stroke-miterlimit="10"/><path d="M1176.5 334.6c48.49 0 87.8-39.309 87.8-87.8s-39.31-87.8-87.8-87.8c-48.49 0-87.8 39.309-87.8 87.8s39.31 87.8 87.8 87.8z" stroke="#fff" stroke-width=".625" stroke-miterlimit="10"/><path d="M1176.5 293.6c25.85 0 46.8-20.953 46.8-46.8 0-25.847-20.95-46.8-46.8-46.8-25.85 0-46.8 20.953-46.8 46.8 0 25.847 20.95 46.8 46.8 46.8z" stroke="#fff" stroke-width=".625" stroke-miterlimit="10"/><path d="M1176.5 375.2c70.91 0 128.4-57.487 128.4-128.4 0-70.913-57.49-128.4-128.4-128.4s-128.4 57.487-128.4 128.4c0 70.913 57.49 128.4 128.4 128.4z" stroke="#fff" stroke-width=".625" stroke-miterlimit="10"/><path d="M1176.5 381.9c74.61 0 135.1-60.486 135.1-135.1s-60.49-135.1-135.1-135.1c-74.61 0-135.1 60.486-135.1 135.1s60.49 135.1 135.1 135.1z" stroke="#fff" stroke-width=".625" stroke-miterlimit="10"/><path d="M1257.3 412.2c61.2-29.9 103.3-92.8 103.3-165.4 0-101.7-82.4-184.1-184.1-184.1-101.7 0-184.1 82.4-184.1 184.1 0 72 41.4 134.4 101.7 164.6M1131.9 425.4c14.3 3.6 29.2 5.4 44.6 5.4 16.7 0 32.9-2.2 48.3-6.4" stroke="#fff" stroke-width="3.747" stroke-miterlimit="10"/><path d="M1173.5 247.7v-185M1178.5 247.7v-185" stroke="#fff" stroke-miterlimit="10"/><path d="M1173.5 216.4l5.1 5.6M1178.6 223.3l-5.1 5.2M1173.5 203.1l5.2 5.9M1178.5 210l-5 5.2M1173.5 189.8l5.1 5.9M1178.7 196.7l-5.2 5.2M1173.5 176.6l5.1 5.7M1178.5 183.4l-5 5.2M1173.5 163.3l5 5.5M1178.6 170.3l-5.1 5.1M1173.5 150l5.2 5.4M1178.7 157l-5.2 5.1M1173.5 136.8l5.1 5.6M1178.6 143.8l-5.1 5M1173.5 123.5l5.1 5.1M1178.6 130.5l-5.1 5.1M1173.5 110.2l5.1 5.2M1178.6 116.1l-5.1 6.2M1173.5 96.9l5 6.2M1178.5 104l-5 5M1173.5 83.7l5 4.9M1178.5 89.6l-5 6.1M1173.5 70.4l5 6.2M1178.5 77.5l-5 5" stroke="#fff" stroke-width=".625" stroke-miterlimit="10"/><path d="M1173.8 246.5l92.5-160.3M1178.2 248.9l92.5-160.2" stroke="#fff" stroke-miterlimit="10"/><path d="M1189.5 219.3l1.6 7.4M1190.5 227.9l-7.1 1.9M1196.1 207.8l1.6 7.7M1197 216.3l-6.9 2M1202.8 196.3l1.5 7.7M1203.8 204.9l-7.1 1.9M1209.4 184.9l1.6 7.5M1210.3 193.3l-6.9 2M1216 173.4l1.6 7.2M1217 182l-7 1.8M1222.7 161.8l1.8 7.3M1223.7 170.5l-7.1 1.8M1229.3 150.4l1.6 7.4M1230.2 159l-6.9 1.8M1235.9 138.9l1.9 7M1236.9 147.5l-7 1.9M1242.6 127.4l1.8 7M1244.1 135l-7.6 2.9M1249.2 115.9l1.3 7.8M1250 124.5l-6.8 1.8M1255.8 104.4l1.9 6.8M1257.2 112l-7.4 2.8M1262.5 92.9l1.2 7.9M1263.3 101.6l-6.9 1.8" stroke="#fff" stroke-width=".625" stroke-miterlimit="10"/><path d="M1174.8 245.5L1335 153M1177.2 249.9l160.3-92.5" stroke="#fff" stroke-miterlimit="10"/><path d="M1201.9 229.9l-2.3 7.2M1198.4 237.8l-7-1.9M1213.4 223.2l-2.5 7.5M1209.9 231l-7-1.7M1224.9 216.6l-2.6 7.4M1221.5 224.5l-7.1-1.9M1236.3 210l-2.4 7.3M1232.9 217.7l-7-1.7M1247.8 203.3l-2.2 7.1M1244.3 211.3l-6.9-1.9M1259.4 196.7l-2.1 7.2M1255.9 204.7l-7-2M1270.8 190.1l-2.3 7.2M1267.3 198l-6.9-1.9M1282.3 183.4l-1.9 7M1278.8 191.4l-7-1.9M1293.8 176.8l-1.9 7M1291.3 184.2l-8-1.4M1305.3 170.1l-2.8 7.5M1301.7 178l-6.8-1.8M1316.8 163.5l-1.8 6.8M1314.2 170.8l-7.8-1.3M1328.3 156.9l-2.9 7.4M1324.6 164.8l-6.8-1.9" stroke="#fff" stroke-width=".625" stroke-miterlimit="10"/><path d="M1176 245.2h185M1176 250.2h185" stroke="#fff" stroke-miterlimit="10"/><path d="M1207.3 245.2l-5.6 5.1M1200.4 250.3l-5.2-5.1M1220.6 245.2l-5.9 5.2M1213.7 250.2l-5.2-5M1233.9 245.2l-5.9 5.1M1227 250.4l-5.2-5.2M1247.1 245.2l-5.7 5.1M1240.3 250.2l-5.2-5M1260.4 245.2l-5.5 5M1253.4 250.3l-5.1-5.1M1273.7 245.2l-5.4 5.2M1266.7 250.4l-5.1-5.2M1286.9 245.2l-5.6 5.1M1279.9 250.3l-5-5.1M1300.2 245.2l-5.1 5.1M1293.2 250.3l-5.1-5.1M1313.5 245.2l-5.2 5.1M1307.6 250.3l-6.2-5.1M1326.8 245.2l-6.2 5M1319.7 250.2l-5-5M1340 245.2l-4.9 5M1334.1 250.2l-6.1-5M1353.3 245.2l-6.2 5M1346.2 250.2l-5-5" stroke="#fff" stroke-width=".625" stroke-miterlimit="10"/><path d="M1177.2 245.5l160.3 92.5M1174.8 249.9l160.2 92.5" stroke="#fff" stroke-miterlimit="10"/><path d="M1204.4 261.2l-7.4 1.6M1195.8 262.2l-1.9-7.1M1215.9 267.8l-7.7 1.6M1207.4 268.7l-2-6.9M1227.4 274.5l-7.7 1.5M1218.8 275.5l-1.9-7.1M1238.8 281.1l-7.5 1.6M1230.4 282l-2-6.9M1250.3 287.7l-7.2 1.6M1241.7 288.7l-1.8-7M1261.9 294.4l-7.3 1.8M1253.2 295.4l-1.8-7.1M1273.3 301l-7.4 1.6M1264.7 301.9l-1.8-6.9M1284.8 307.6l-7 1.9M1276.2 308.6l-1.9-7M1296.3 314.3l-7 1.8M1288.7 315.8l-2.9-7.6M1307.8 320.9l-7.8 1.3M1299.2 321.7l-1.8-6.8M1319.3 327.5l-6.8 1.9M1311.7 328.9l-2.8-7.4M1330.8 334.2l-7.9 1.2M1322.1 335l-1.8-6.9" stroke="#fff" stroke-width=".625" stroke-miterlimit="10"/><path d="M1178.2 246.5l92.5 160.2M1173.8 248.9l92.5 160.3" stroke="#fff" stroke-miterlimit="10"/><path d="M1193.8 273.6l-7.2-2.3M1185.9 270.1l1.9-7M1200.5 285.1l-7.5-2.5M1192.7 281.6l1.7-7M1207.1 296.6l-7.4-2.6M1199.2 293.2l1.9-7.1M1213.7 308l-7.3-2.4M1206 304.6l1.7-7M1220.4 319.5l-7.1-2.2M1212.4 316l1.9-6.9M1227 331.1l-7.2-2.1M1219 327.6l2-7M1233.6 342.5l-7.2-2.3M1225.7 339l1.9-6.9M1240.3 354l-7-1.9M1232.3 350.5l1.9-7M1246.9 365.5l-7-1.9M1239.5 363l1.4-8M1253.6 377l-7.5-2.8M1245.7 373.4l1.8-6.8M1260.2 388.5l-6.8-1.8M1252.9 385.9l1.3-7.8M1266.8 400l-7.4-2.9M1258.9 396.3l1.9-6.8" stroke="#fff" stroke-width=".625" stroke-miterlimit="10"/><path d="M1178.5 247.7v185M1173.5 247.7v185" stroke="#fff" stroke-miterlimit="10"/><path d="M1178.5 279l-5.1-5.6M1173.4 272.1l5.1-5.2M1178.5 292.3l-5.2-5.9M1173.5 285.4l5-5.2M1178.5 305.6l-5.1-5.9M1173.3 298.7l5.2-5.2M1178.5 318.8l-5.1-5.7M1173.5 312l5-5.2M1178.5 332.1l-5-5.5M1173.4 325.1l5.1-5.1M1178.5 345.4l-5.2-5.4M1173.3 338.4l5.2-5.1M1178.5 358.6l-5.1-5.6M1173.4 351.6l5.1-5M1178.5 371.9l-5.1-5.1M1173.4 364.9l5.1-5.1M1178.5 385.2l-5.1-5.2M1173.4 379.3l5.1-6.2M1178.5 398.5l-5-6.2M1173.5 391.4l5-5M1178.5 411.7l-5-4.9M1173.5 405.8l5-6.1M1178.5 425l-5-6.2M1173.5 417.9l5-5" stroke="#fff" stroke-width=".625" stroke-miterlimit="10"/><path d="M1178.2 248.9l-92.5 160.3M1173.8 246.5l-92.5 160.2" stroke="#fff" stroke-miterlimit="10"/><path d="M1162.5 276.1l-1.6-7.4M1161.5 267.5l7.1-1.9M1155.9 287.6l-1.6-7.7M1155 279.1l6.9-2M1149.2 299.1l-1.5-7.7M1148.2 290.5l7.1-1.9M1142.6 310.5l-1.6-7.5M1141.7 302.1l6.9-2M1136 322l-1.6-7.2M1135 313.4l7-1.8M1129.3 333.6l-1.8-7.3M1128.3 324.9l7.1-1.8M1122.7 345l-1.6-7.4M1121.8 336.4l6.9-1.8M1116.1 356.5l-1.9-7M1115.1 347.9l7-1.9M1109.4 368l-1.8-7M1107.9 360.4l7.6-2.9M1102.8 379.5l-1.3-7.8M1102 370.9l6.8-1.8M1096.2 391l-1.9-6.8M1094.8 383.4l7.4-2.8M1089.5 402.5l-1.2-7.9M1088.7 393.8l6.9-1.8" stroke="#fff" stroke-width=".625" stroke-miterlimit="10"/><path d="M1177.2 249.9L1017 342.4M1174.8 245.5L1014.5 338" stroke="#fff" stroke-miterlimit="10"/><path d="M1150.1 265.5l2.3-7.2M1153.6 257.6l7 1.9M1138.6 272.2l2.5-7.5M1142.1 264.4l7 1.7M1127.1 278.8l2.6-7.4M1130.5 270.9l7.1 1.9M1115.7 285.4l2.4-7.3M1119.1 277.7l7 1.7M1104.2 292.1l2.2-7.1M1107.7 284.1l6.9 1.9M1092.6 298.7l2.1-7.2M1096.1 290.7l7 2M1081.2 305.3l2.3-7.2M1084.7 297.4l6.9 1.9M1069.7 312l1.9-7M1073.2 304l7 1.9M1058.2 318.6l1.9-7M1060.7 311.2l8 1.4M1046.7 325.3l2.8-7.5M1050.3 317.4l6.8 1.8M1035.2 331.9l1.8-6.8M1037.8 324.6l7.8 1.3M1023.7 338.5l2.9-7.4M1027.4 330.6l6.8 1.9" stroke="#fff" stroke-width=".625" stroke-miterlimit="10"/><path d="M1176 250.2H991M1176 245.2H991" stroke="#fff" stroke-miterlimit="10"/><path d="M1144.7 250.2l5.6-5.1M1151.6 245.1l5.2 5.1M1131.4 250.2l5.9-5.2M1138.3 245.2l5.2 5M1118.1 250.2l5.9-5.1M1125 245l5.2 5.2M1104.9 250.2l5.7-5.1M1111.7 245.2l5.2 5M1091.6 250.2l5.5-5M1098.6 245.1l5.1 5.1M1078.3 250.2l5.4-5.2M1085.3 245l5.1 5.2M1065.1 250.2l5.6-5.1M1072.1 245.1l5 5.1M1051.8 250.2l5.1-5.1M1058.8 245.1l5.1 5.1M1038.5 250.2l5.2-5.1M1044.4 245.1l6.2 5.1M1025.2 250.2l6.2-5M1032.3 245.2l5 5M1012 250.2l4.9-5M1017.9 245.2l6.1 5M998.7 250.2l6.2-5M1005.8 245.2l5 5" stroke="#fff" stroke-width=".625" stroke-miterlimit="10"/><path d="M1174.8 249.9l-160.3-92.5M1177.2 245.5L1017 153" stroke="#fff" stroke-miterlimit="10"/><path d="M1147.6 234.2l7.4-1.6M1156.2 233.2l1.9 7.1M1136.1 227.6l7.7-1.6M1144.6 226.7l2 6.9M1124.6 220.9l7.7-1.5M1133.2 219.9l1.9 7.1M1113.2 214.3l7.5-1.6M1121.6 213.4l2 6.9M1101.7 207.7l7.2-1.6M1110.3 206.7l1.8 7M1090.1 201l7.3-1.8M1098.8 200l1.8 7.1M1078.7 194.4l7.4-1.6M1087.3 193.5l1.8 6.9M1067.2 187.8l7-1.9M1075.8 186.8l1.9 7M1055.7 181.1l7-1.8M1063.3 179.6l2.9 7.6M1044.2 174.5l7.8-1.3M1052.8 173.7l1.8 6.8M1032.7 167.9l6.8-1.9M1040.3 166.5l2.8 7.4M1021.2 161.2l7.9-1.2M1029.9 160.4l1.8 6.9" stroke="#fff" stroke-width=".625" stroke-miterlimit="10"/><path d="M1173.8 248.9l-92.5-160.2M1178.2 246.5l-92.5-160.3" stroke="#fff" stroke-miterlimit="10"/><path d="M1158.2 221.8l7.2 2.3M1166.1 225.3l-1.9 7M1151.5 210.3l7.5 2.5M1159.3 213.8l-1.7 7M1144.9 198.8l7.4 2.6M1152.8 202.2l-1.9 7.1M1138.3 187.4l7.3 2.4M1146 190.8l-1.7 7M1131.6 175.9l7.1 2.2M1139.6 179.4l-1.9 6.9M1125 164.3l7.2 2.1M1133 167.8l-2 7M1118.4 152.9l7.2 2.3M1126.3 156.4l-1.9 6.9M1111.7 141.4l7 1.9M1119.7 144.9l-1.9 7M1105.1 129.9l7 1.9M1112.5 132.4l-1.4 8M1098.4 118.4l7.5 2.8M1106.3 122l-1.8 6.8M1091.8 106.9l6.8 1.8M1099.1 109.5l-1.3 7.8M1085.2 95.4l7.4 2.9M1093.1 99.1l-1.9 6.8" stroke="#fff" stroke-width=".625" stroke-miterlimit="10"/><path d="M1173.5 247.7v-185M1178.5 247.7v-185" stroke="#fff" stroke-miterlimit="10"/><path d="M1173.5 216.4l5.1 5.6M1178.6 223.3l-5.1 5.2M1173.5 203.1l5.2 5.9M1178.5 210l-5 5.2M1173.5 189.8l5.1 5.9M1178.7 196.7l-5.2 5.2M1173.5 176.6l5.1 5.7M1178.5 183.4l-5 5.2M1173.5 163.3l5 5.5M1178.6 170.3l-5.1 5.1M1173.5 150l5.2 5.4M1178.7 157l-5.2 5.1M1173.5 136.8l5.1 5.6M1178.6 143.8l-5.1 5M1173.5 123.5l5.1 5.1M1178.6 130.5l-5.1 5.1M1173.5 110.2l5.1 5.2M1178.6 116.1l-5.1 6.2M1173.5 96.9l5 6.2M1178.5 104l-5 5M1173.5 83.7l5 4.9M1178.5 89.6l-5 6.1M1173.5 70.4l5 6.2M1178.5 77.5l-5 5" stroke="#fff" stroke-width=".625" stroke-miterlimit="10"/><path d="M1176.5 262.6c8.73 0 15.8-7.074 15.8-15.8s-7.07-15.8-15.8-15.8-15.8 7.074-15.8 15.8 7.07 15.8 15.8 15.8z" stroke="#fff" stroke-width="1.249" stroke-miterlimit="10"/><path d="M1176.5 256.8c5.52 0 10-4.477 10-10s-4.48-10-10-10-10 4.477-10 10 4.48 10 10 10z" stroke="#fff" stroke-width="2.498" stroke-miterlimit="10"/><path d="M1258.4 412.1l18.8 38.6h-49.1l-5.9-24.3s-8.3-14.5-45.7-14.5c-37.4 0-43.9 10.6-43.9 10.6l-6.9 28.2h-49.1l99.9-203.1-40.7 161.7c11.8-1.9 25.6-3.5 40.7-3.5 16.3 0 30.3 1.6 41.6 3.8l-40.9-162.3 81.2 164.8z" fill="#2B2B2B"/><path d="M1258.4 411.8l18.8 38.4h-49.1l-5.9-24s-8.3-14.4-45.7-14.4c-37.4 0-43.9 10.4-43.9 10.4l-6.9 28h-49.1l99.9-202.9-40.7 161.8c11.8-1.9 25.6-3.4 40.7-3.4 16.3 0 30.3 1.7 41.6 3.8l-40.9-162.4 81.2 164.7z" stroke="#fff" stroke-miterlimit="10" stroke-linecap="round" stroke-linejoin="round"/><path opacity=".43" d="M1256.1 408.3c59.5-29.4 100.4-90.7 100.4-161.5 0-99.4-80.6-180-180-180s-180 80.6-180 180c0 70.8 40.9 132.1 100.4 161.5" stroke="#fff" stroke-width="1.249" stroke-miterlimit="10"/><path d="M1132.7 421.4c14 3.5 28.7 5.4 43.8 5.4 15.6 0 30.7-2 45.1-5.7" stroke="#fff" stroke-width="1.249" stroke-miterlimit="10"/><path d="M1331.5 471.7v20" stroke="#2D2D2D" stroke-miterlimit="10" stroke-linecap="round" stroke-linejoin="round"/><path opacity=".51" d="M1221 421.2l1.3 5.2" stroke="#2D2D2D" stroke-width="1.249" stroke-miterlimit="10" stroke-linecap="round" stroke-linejoin="round"/><path d="M1360.6 246.8c0-101.7-82.4-184.1-184.1-184.1" stroke="#fff" stroke-width="3.747" stroke-miterlimit="10"/><path d="M745.5 97.8l41-10v291.3l-41 .1V97.8z" fill="#353535" stroke="#fff" stroke-miterlimit="10"/><path d="M1730.4 409.2l-36.8-16.7-16.1-7.4v-13.7l-32.5-14-36.9 17.8h5.4v9.7l-61.6 28.3h8.6v52h163v-56h6.9z" fill="#2C2C2C" stroke="#fff" stroke-miterlimit="10"/><path d="M1009.5 119.4l-15 3.1v13.6l15.1-2.5-.1-14.2z" fill="#3F3F3F" stroke="#fff" stroke-miterlimit="10"/><path d="M1822.6 377.3l13.9 11.8v10l15.7 13.1h-5.7v53.5" stroke="#fff" stroke-miterlimit="10"/><path d="M562.5 381.2h-16v55h16v-55z" fill="#2D2D2D" stroke="#fff" stroke-miterlimit="10"/><path d="M559.3 380.3l-7.3.2v-4.2l5.4-1 1.9 5z" fill="#2D2D2D"/><path opacity=".5" d="M604.5 454.2v12h438.3l-3 22h291.7v6h392v-23h-392v-5h-289.2l10.7-12H606.3l14.6-6H493.5v6h111z" fill="#14333F" stroke="#fff" stroke-miterlimit="10" stroke-linecap="round" stroke-linejoin="round"/><path opacity=".5" d="M620.5 448.2h-622v19h622v-19z" fill="#14333F" stroke="#fff" stroke-miterlimit="10" stroke-linecap="round" stroke-linejoin="round"/><path opacity=".5" d="M2343.5 471.2h-621v19h621v-19z" fill="#162F38" stroke="#fff" stroke-miterlimit="10" stroke-linecap="round" stroke-linejoin="round"/><path d="M688.3 403.4l104.2.2v47.5l-104.7-.4.5-47.3z" fill="#2B2B2B" stroke="#fff" stroke-miterlimit="10"/><path d="M504 430.7H-2v13h506v-13z" fill="#353535"/></g></g><defs><linearGradient id="b" y1="255.1" x2="2342" y2="255.1" gradientUnits="userSpaceOnUse"><stop/><stop offset=".1" stop-color="#fff"/><stop offset=".9" stop-color="#fff"/><stop offset="1"/></linearGradient><clipPath id="a"><path fill="#fff" d="M0 0h2342v510H0z"/></clipPath></defs></svg>